<svg width="105" height="48" viewBox="0 0 105 48" fill="none" xmlns="http://www.w3.org/2000/svg">
<path d="M33.5164 17.7857V14.5497H49.4119V17.7857H43.469V33.6076H39.4723V17.7857H33.5164ZM56.7887 33.8485C60.9238 33.8485 63.4626 31.6572 63.4626 27.9795V19.1731H59.5367V27.736C59.5367 29.5941 58.5291 30.6192 56.8018 30.6192C55.0745 30.6192 54.0669 29.5941 54.0669 27.736V19.1731H50.1412V27.9795C50.1412 31.6572 52.6667 33.8485 56.7887 33.8485ZM66.8063 38.8456V19.1768H70.6591V21.5814H70.8422C71.016 21.2062 71.2712 20.8182 71.6059 20.4175C71.9412 20.0167 72.3855 19.6799 72.9384 19.407C73.4913 19.1342 74.1816 18.9977 75.0087 18.9977C76.0886 18.9977 77.0766 19.2706 77.9734 19.8164C78.8702 20.3621 79.5864 21.1807 80.122 22.2721C80.6576 23.3636 80.9251 24.8546 80.9251 26.4833C80.9251 28.0693 80.6644 29.4101 80.1417 30.5059C79.6191 31.6016 78.9096 32.433 78.0129 33C77.1161 33.5671 76.1059 33.8506 74.9822 33.8506C74.1902 33.8506 73.5196 33.7184 72.9711 33.4541C72.4225 33.1897 71.9763 32.8636 71.6324 32.4756C71.2884 32.0876 71.0246 31.7018 70.8422 31.3181H70.7245V38.8456H66.8063ZM73.781 30.7681C74.7998 30.7681 75.577 30.3673 76.112 29.5658C76.6476 28.7643 76.9157 27.7325 76.9157 26.4705C76.9157 25.217 76.6501 24.0607 76.1188 23.2634C75.5875 22.4661 74.8084 22.0675 73.781 22.0675C72.7708 22.0675 71.9935 22.4555 71.4493 23.2314C70.9051 24.0074 70.6333 25.1744 70.6333 26.4705C70.6333 27.7666 70.9075 28.8068 71.4561 29.5913C72.0046 30.3758 72.7794 30.7681 73.781 30.7681ZM87.9294 33.6971C86.4402 33.6971 85.3456 33.3816 84.6442 32.7506C83.9434 32.1196 83.5927 31.1688 83.5927 29.8983V14.5497H87.5115V29.374C87.5115 29.8344 87.5922 30.167 87.7531 30.3716C87.9139 30.5762 88.1907 30.6785 88.5827 30.6785C88.7916 30.6785 88.9543 30.67 89.0721 30.653C89.1898 30.6359 89.2921 30.6146 89.379 30.589L89.9929 33.3902C89.784 33.4583 89.5011 33.5266 89.1442 33.5948C88.7873 33.663 88.3824 33.6971 87.9294 33.6971ZM97.9211 33.889C96.4319 33.889 95.1481 33.5905 94.0682 32.9937C92.9884 32.3967 92.1588 31.5483 91.58 30.4483C91.0006 29.3483 90.7116 28.0437 90.7116 26.5344C90.7116 25.0592 91.0006 23.7674 91.58 22.6589C92.1588 21.5504 92.973 20.6849 94.0226 20.0624C95.0717 19.4399 96.3062 19.1287 97.7251 19.1287C98.9966 19.1287 100.15 19.393 101.186 19.9218C102.223 20.4504 103.048 21.252 103.662 22.3263C104.276 23.4008 104.583 24.7523 104.583 26.3809V27.4554H94.5903C94.634 28.6235 94.965 29.5061 95.5832 30.103C96.2014 30.6999 97.0027 30.9983 97.9864 30.9983C98.6742 30.9983 99.2641 30.8555 99.7566 30.5699C100.248 30.2842 100.598 29.8642 100.808 29.31L104.361 29.9623C104.003 31.1476 103.265 32.0983 102.147 32.8146C101.027 33.5308 99.6191 33.889 97.9211 33.889ZM94.6168 25.0507H100.808C100.712 24.1213 100.407 23.3837 99.8934 22.838C99.38 22.2922 98.6699 22.0194 97.7645 22.0194C96.8239 22.0194 96.0837 22.3029 95.5438 22.87C95.0045 23.437 94.6951 24.1639 94.6168 25.0507Z" fill="#312E81" style="fill:#312E81;fill:color(display-p3 0.1922 0.1804 0.5059);fill-opacity:1;"/>
<path d="M0 13.3835V27.2421C0 28.0401 0.566008 28.731 1.36154 28.9042L13.9338 31.6401C14.8712 31.8441 15.8 31.2653 16.0083 30.3473C16.0358 30.2261 16.0497 30.1022 16.0497 29.978V10.6476C16.0497 9.70726 15.2713 8.94495 14.311 8.94495C14.1841 8.94495 14.0577 8.95854 13.9338 8.9855L1.36154 11.7214C0.566008 11.8945 0 12.5855 0 13.3835Z" fill="#312E81" style="fill:#312E81;fill:color(display-p3 0.1922 0.1804 0.5059);fill-opacity:1;"/>
<path d="M20.9973 15.4932C21.9575 15.4932 22.736 16.2555 22.736 17.1958V37.1811C22.736 37.3053 22.7221 37.4292 22.6946 37.5505C22.4862 38.4684 21.5575 39.0472 20.6201 38.8432L8.0478 36.1073C7.25228 35.9341 6.68628 35.2432 6.68628 34.4452V31.9175L13.823 33.4712C15.6979 33.8792 17.5554 32.7216 17.972 30.8857C18.0271 30.6431 18.0548 30.3954 18.0548 30.147L18.0535 16.0904L20.6201 15.5337C20.682 15.5203 20.7446 15.5101 20.8075 15.5033L20.9973 15.4932Z" fill="#312E81" fill-opacity="0.5" style="fill:#312E81;fill:color(display-p3 0.1922 0.1804 0.5059);fill-opacity:0.5;"/>
</svg>
