<svg width="48" height="48" viewBox="0 0 48 48" fill="none" xmlns="http://www.w3.org/2000/svg">
<g clip-path="url(#clip0_25_136)">
<path d="M48 0H0V48H48V0Z" fill="white" style="fill:white;fill-opacity:1;"/>
<path d="M15 15.514V26.4856C15 27.1174 15.4481 27.6645 16.0779 27.8015L26.0314 29.9675C26.7735 30.129 27.5088 29.6708 27.6738 28.944C27.6956 28.8481 27.7065 28.75 27.7065 28.6517V13.348C27.7065 12.6035 27.0902 12 26.33 12C26.2296 12 26.1294 12.0108 26.0314 12.0321L16.0779 14.1981C15.4481 14.3352 15 14.8822 15 15.514Z" fill="#4F46E5" style="fill:#4F46E5;fill:color(display-p3 0.3098 0.2745 0.8980);fill-opacity:1;"/>
<path d="M31.6234 17.1842C32.3837 17.1842 33 17.7878 33 18.5322V34.3543C33 34.4527 32.989 34.5507 32.9672 34.6468C32.8023 35.3735 32.067 35.8317 31.3249 35.6702L21.3714 33.5042C20.7416 33.3671 20.2935 32.8201 20.2935 32.1883V30.1872L25.9436 31.4172C27.4279 31.7402 28.8985 30.8238 29.2284 29.3703C29.2719 29.1783 29.2939 28.9822 29.2939 28.7855L29.2929 17.657L31.3249 17.2163C31.3739 17.2057 31.4234 17.1976 31.4733 17.1923L31.6234 17.1842Z" fill="#4F46E5" fill-opacity="0.5" style="fill:#4F46E5;fill:color(display-p3 0.3098 0.2745 0.8980);fill-opacity:0.5;"/>
</g>
<defs>
<clipPath id="clip0_25_136">
<rect width="48" height="48" fill="white" style="fill:white;fill-opacity:1;"/>
</clipPath>
</defs>
</svg>
